<?xml version="1.0" encoding="UTF-8" standalone="no"?>
<svg width="1401px" height="995px" viewBox="0 0 1401 995" version="1.1" xmlns="http://www.w3.org/2000/svg" xmlns:xlink="http://www.w3.org/1999/xlink">
    <!-- Generator: Sketch 3.7.1 (28215) - http://www.bohemiancoding.com/sketch -->
    <title>Group 5</title>
    <desc>Created with Sketch.</desc>
    <defs></defs>
    <g id="Page-1" stroke="none" stroke-width="1" fill="none" fill-rule="evenodd">
        <g id="Group-5">
            <g id="Page-1" fill="#5D5D5D">
                <polygon points="507.863697 0 505.736487 0.0289417424 504.468695 34.5210672 503.200902 57.2113932 502.490816 72.1646268 501.533877 23.7579547 499.824185 23.6743453 499.001339 1.50818635 496.871082 1.49210761 495.609384 25.5812845 495.560623 26.0314894 495.197961 21.6677178 493.067704 21.7191698 492.333237 38.9523695 490.538214 39.0134687 489.861651 54.2078835 488.005676 54.2721985 487.999581 54.4362017 487.606443 36.5727151 484.561913 22.2722786 483.550117 45.9241137 482.529178 32.0031356 479.905213 12.6025209 477.896859 39.1742562 476.613828 41.1712364 475.50451 84.8475414 473.581488 84.0982719 472.133888 41.8240335 469.037548 55.0664885 467.742328 95.7360681 467.282143 113.609202 466.041779 111.194174 464.804462 101.048486 462.677252 101.138527 462.515731 104.646909 462.043356 93.8323446 458.883017 102.450552 457.828555 167.000285 457.209897 159.501158 455.07964 159.526884 454.198889 174.08458 453.403471 151.072679 451.133026 132.504944 448.771152 149.966462 447.536883 153.812498 446.217282 176.821183 444.949489 216.767219 444.565494 234.563175 444.547209 234.016497 441.527059 225.59445 439.890509 247.226795 439.390706 251.510173 438.217388 235.990967 436.949596 190.867575 435.684851 166.215642 433.554594 166.202779 433.158408 172.70824 431.884521 129.263469 429.754263 129.257037 428.489518 168.685338 427.227821 195.231347 425.956981 206.666551 424.689188 247.059576 424.344812 252.172617 423.019115 229.337582 421.751323 199.173855 420.489625 188.404311 419.22488 162.273134 417.091575 162.279565 415.82683 191.382095 415.677499 195.668689 415.415407 187.114796 412.285544 182.23972 411.499269 191.986656 410.130906 182.921459 408.229217 212.570666 407.15647 238.055478 406.556097 219.455585 405.294399 197.279779 404.029654 171.640611 399.49181 159.124915 398.096019 220.458899 397.779071 227.298797 397.4286 221.330367 394.393212 228.430741 393.527699 232.37325 392.631711 188.478274 390.605072 188.385017 390.096126 180.046579 387.965869 180.065874 386.289701 218.307563 385.375427 216.899065 384.677532 220.761179 383.979636 216.899065 381.111865 221.307857 379.895881 233.292954 379.408269 222.796749 378.143524 204.878594 376.878779 183.831516 375.565272 180.435685 372.450647 166.064502 370.951239 222.044263 370.567244 230.180109 368.056039 212.187992 367.28805 219.539195 366.748628 209.596098 365.483883 162.823027 363.350578 162.81338 362.293069 191.176287 361.677458 175.975441 359.784912 159.099189 358.791401 162.774791 357.310278 135.460217 354.491268 154.561767 353.299665 167.434411 352.778529 162.003011 351.538165 160.47553 350.075327 114.872991 347.106986 124.918992 346.951559 124.964012 344.45864 122.667967 343.629699 141.763086 342.687997 117.995484 341.420204 79.020604 339.292995 78.9980937 338.043488 103.238411 337.089596 104.698361 336.355129 92.2405487 334.227919 92.2437645 333.533072 104.859148 332.310993 72.9010333 329.211605 83.3972386 329.117131 84.0918404 328.736183 79.2103332 325.737366 64.4532603 324.106912 102.264039 323.841772 103.981249 323.677203 103.022956 322.412458 99.8361482 320.754575 76.3418849 319.715351 79.7473633 318.627366 39.92031 316.497108 39.9042312 315.406075 68.1288616 314.817893 61.9932122 312.84611 48.6349902 310.213002 57.5458311 309.05797 69.4280242 308.497215 62.2086674 306.370006 62.2215304 305.105261 81.5224568 304.11175 90.4204347 303.136525 89.3238642 303.045098 89.6454392 302.155205 74.8626403 300.899602 66.0161144 299.63181 34.0033316 298.364017 19.1915909 296.236808 19.2623374 294.972062 66.2380011 293.70427 83.8024229 292.448668 107.463905 291.171732 116.139996 291.028496 118.503572 289.504707 84.5902815 287.37445 84.596713 286.30475 111.908071 284.963815 98.697773 283.79964 104.785186 283.171839 97.0545252 281.900999 73.2226082 280.633206 60.3596116 278.509044 60.4303581 277.244299 91.5716729 275.976507 109.123232 274.723952 129.170212 274.178435 130.34396 273.038641 90.8063246 271.776944 69.3733565 269.646686 69.3572777 268.704985 82.1077231 267.961375 79.3582576 266.693583 66.9036611 265.437981 59.5460271 262.844491 39.6019508 260.805661 65.9132104 256.127629 72.6084001 254.500222 71.1195083 250.596274 61.2310796 249.426004 69.418377 248.347161 55.9411723 247.079368 35.7269731 244.949111 35.7591306 243.687414 70.2480403 242.419621 92.941582 241.157924 119.407198 240.54536 121.317353 239.481756 71.2545697 238.217011 37.2351595 236.086753 37.215865 234.828103 61.3082576 234.776295 61.7584625 234.41668 57.3979066 232.286423 57.4429271 231.01863 87.0535453 230.646826 104.402512 230.613303 103.238411 229.34551 89.9252093 227.221348 89.9959558 225.95965 129.379236 225.502514 134.559808 224.280435 60.1280777 223.012642 49.2813558 220.88848 49.4035542 219.824875 124.967228 219.123932 119.780224 218.928887 122.349608 217.95671 41.5153216 215.823405 41.4992428 214.723229 84.8475414 212.797159 84.0982719 211.352607 41.8208177 208.256268 55.0664885 206.961047 95.7360681 206.500863 113.609202 205.260498 111.194174 204.020134 101.048486 201.892924 101.138527 201.731402 104.634046 201.262075 93.8323446 198.165736 102.264039 197.181368 132.903697 196.425568 123.770969 194.298359 123.796695 193.414561 138.34796 192.622191 115.345706 190.351745 96.774755 187.989872 114.239489 186.752555 118.08874 185.432953 141.090994 184.168208 181.043462 183.784213 198.839417 183.765928 198.289524 180.739683 189.873909 179.109228 211.496606 178.606378 215.789631 177.423917 200.13858 176.168315 190.867575 174.900522 166.215642 172.773313 166.202779 172.37408 172.70824 171.10324 129.263469 168.972983 129.257037 167.70519 168.685338 166.44654 195.231347 165.425601 204.402663 164.767324 158.587885 163.502579 144.326038 162.237834 122.153447 160.970042 92.0765455 158.839784 92.1119188 157.919416 162.273134 156.648576 162.279565 155.908014 121.19837 153.774709 121.195154 153.025005 160.362979 152.107684 94.083173 149.974379 94.0863887 149.712287 114.725067 149.578194 105.421905 147.444889 105.389747 146.375189 130.874559 145.774816 112.277882 144.510071 90.0892125 142.376766 90.1406645 141.203448 165.919793 140.706693 164.572394 139.444996 113.30049 137.314738 113.274764 136.994743 120.121094 136.644271 114.152663 133.608883 121.249822 132.274044 127.382255 130.991013 143.248762 129.790267 152.140308 129.311798 144.319606 127.18154 144.342117 125.505372 182.58059 124.591099 181.168876 123.893203 185.034206 123.198355 181.168876 120.330584 185.580884 119.111553 197.569197 118.626988 187.069776 117.359195 169.151621 116.09445 148.104543 114.780944 144.708712 111.669366 130.337529 110.16691 186.314074 109.782915 194.453136 107.274758 176.464235 106.503721 183.815437 105.967347 173.869125 104.699555 127.096054 102.569297 127.083191 101.511788 155.449314 100.893129 140.248468 99.0036308 123.372216 98.0070727 127.051033 96.5289972 99.7300285 93.7099872 118.834794 92.5153365 131.704222 91.9972481 126.276038 88.6936732 122.208115 88.6571023 124.105407 88.2212985 88.6035364 86.1672307 89.2402548 83.6743116 86.9345626 82.5832786 112.104231 81.1570119 107.274176 80.4316882 150.471334 78.5086663 150.45204 77.2591592 174.692357 76.3083147 176.155523 75.5708007 163.694495 73.443591 163.700926 72.7487432 176.325958 71.5266643 144.35498 68.4242295 154.8544 68.3328021 155.545787 67.9549024 150.664279 64.9560853 135.907206 63.3225833 173.717985 63.057444 175.435195 62.8959223 174.476902 61.6281297 171.290094 60.3786226 153.580964 59.1138776 122.028033 57.8430374 75.6440673 55.7158277 75.6312043 54.6217471 103.85905 54.036612 97.723401 52.0617812 84.3619633 49.4317211 93.2728042 48.1304051 106.659968 46.8504222 114.188037 46.5578547 118.719027 46.4481419 117.288019 44.3239798 117.24943 43.0531396 128.639613 42.8001906 135.460217 42.6478117 131.729948 41.3739239 110.589613 40.1183216 101.743087 38.8474814 69.7303046 36.6623677 44.1618831 34.1907817 66.2380011 32.9229891 83.8024229 31.6673868 107.463905 30.3904515 116.139996 30.2441677 118.513219 28.7203785 84.5902815 26.5901212 84.596713 25.5204212 111.908071 24.1794868 98.697773 23.0153118 104.785186 22.3875107 97.0513095 21.1166705 73.2226082 19.8519255 60.3596116 17.7277634 60.4303581 16.4599708 91.5716729 15.1952257 109.123232 13.942671 129.170212 13.3941069 130.347176 12.2573602 90.8063246 10.9895676 69.3733565 8.86235789 69.3572777 7.92065617 82.1077231 7.17704705 79.3582576 5.91230203 66.9036611 4.65365217 59.5460271 2.06016298 39.5923036 0 66.2315696 2.1272097 66.4148673 2.60263192 60.2406289 3.8033778 67.2220203 5.06812282 79.6959113 6.36943879 84.5613397 9.45358809 90.327178 9.81015476 85.5228487 10.1301505 90.9124443 11.5228938 139.492767 16.0394049 129.76191 17.3224354 109.284019 18.590228 91.7035186 19.1875534 77.0429182 20.260301 97.2120969 22.1619899 120.629182 23.5303526 113.461277 24.3227229 121.262685 27.4403956 117.432728 27.7085825 110.541377 29.1226589 136.936246 31.2529161 136.942678 32.5085184 116.387609 33.7854538 107.701871 35.0501988 83.9503474 36.3118962 66.456672 36.378943 65.8778372 36.7172242 69.8782291 37.9972071 101.958543 39.2528094 110.827579 40.520602 131.848931 41.785347 163.032051 43.9156043 163.028835 45.1773017 128.81648 45.189492 128.703928 45.5856772 133.842696 47.7128869 133.829833 48.9654416 114.464591 50.2423769 106.971896 51.4217898 94.6362818 51.918545 98.0096027 53.5611898 115.184919 56.5721972 108.698753 56.5965778 108.017014 56.9805727 122.108427 58.2483653 153.71281 59.5131103 171.640611 60.8174739 175.001069 63.1610616 188.729102 65.4406503 173.952735 66.2269255 155.880224 67.1137708 167.363665 69.2379329 167.395822 69.9967799 160.153955 70.9201962 184.313878 74.0713922 191.105541 74.5437668 182.480901 75.2995663 195.253857 78.0545771 177.445038 79.3162746 175.502726 79.7734113 189.526608 81.9067162 189.507313 83.0526056 121.262685 84.1619242 125.005817 85.6034287 91.7067344 85.6430472 91.7453234 86.1215171 91.5973989 87.3710242 193.009264 89.504329 193.018911 90.6014573 134.11925 91.9362966 148.078817 94.5633091 132.694673 95.5812003 121.716105 96.5960439 140.463923 98.1320234 134.781694 98.7689673 140.42855 100.033712 171.611669 102.160922 171.70171 103.431762 161.080091 103.462238 160.247212 103.834043 173.962382 105.098788 197.350526 107.225997 197.411625 107.591707 193.932184 108.902165 213.345662 111.029375 213.323152 112.297168 186.404115 113.357725 146.914716 113.976383 148.438981 115.231986 169.305977 116.496731 187.208053 117.764523 214.490469 119.891733 214.532273 121.156478 198.575726 122.238368 187.899439 123.893203 197.06754 125.727846 186.899341 127.343062 189.381899 128.424952 164.742829 128.452381 165.17374 130.576543 165.221976 131.83824 152.934598 133.10908 143.502806 134.370778 127.800303 135.105244 124.365883 136.049993 140.518591 137.982158 140.502512 138.579483 164.826439 143.156946 177.480412 143.99503 123.32398 144.912351 151.828381 147.039561 151.883048 147.947739 140.219526 148.709634 192.919223 150.845986 192.912792 151.083698 174.107091 151.248267 185.857438 154.576222 191.034794 154.810886 178.63165 155.042502 191.443194 157.172759 191.472136 157.431803 185.539079 157.575039 188.520078 159.705297 188.478274 160.488524 128.94511 161.378417 144.499688 162.637067 158.706868 163.90486 247.152833 166.038165 247.175343 167.299862 206.836986 168.570702 195.424292 169.835447 168.778594 169.987826 164.080385 170.240775 172.791849 171.50552 187.08907 173.635777 187.056913 173.74549 185.233583 174.0472 191.089462 175.308898 200.386193 176.573643 217.149893 179.252464 228.688001 181.230343 211.724924 181.809383 204.068226 182.903463 239.775904 185.033721 239.769473 186.298466 181.104561 187.563211 141.193898 188.82186 118.66436 190.040892 114.863344 190.248127 113.480572 190.501076 115.529004 192.140673 163.507981 195.160823 144.654044 195.523485 138.724203 195.566151 139.251586 198.7143 152.793105 199.936379 112.40008 200.628179 128.363059 202.761484 128.366275 203.502045 112.493337 204.437652 114.316667 205.696302 145.123544 207.826559 145.104249 209.091304 95.8035988 210.033006 65.73956 210.855852 89.7065384 213.40058 86.7287547 216.478634 99.6914395 216.50911 98.4630233 217.08815 146.753928 219.221455 146.831106 219.773066 139.492767 221.753992 139.360921 222.540267 83.7413237 223.421018 137.884892 226.191266 150.931187 228.08686 129.520729 228.696376 110.502788 229.753885 146.284429 231.88719 146.271566 233.151935 87.1275076 233.691357 74.5089079 234.462394 83.8024229 236.949218 61.5012026 236.970551 61.1120969 237.351498 71.3253162 238.853954 142.132897 241.986865 123.848147 243.227229 119.979601 244.546831 93.0605648 245.814623 70.3573757 246.299188 57.1277837 247.502982 72.122822 250.395134 77.750383 251.565404 69.5373597 252.726531 72.4701229 256.468957 75.9077588 262.88411 66.7332264 263.38696 60.2341974 264.584659 67.2220203 265.852451 79.6959113 267.15072 84.5613397 270.237916 90.327178 270.594483 85.5228487 270.911431 90.9124443 272.307222 139.499198 276.823733 129.76191 278.106764 109.284019 279.371509 91.7035186 279.971882 77.0300552 281.044629 97.2120969 282.946318 120.629182 284.314681 113.461277 285.107051 121.262685 288.221676 117.432728 288.492911 110.525298 289.906987 136.936246 292.034197 136.942678 293.289799 116.387609 294.569782 107.701871 295.83148 83.9503474 297.10232 66.3569838 297.778882 41.1326474 298.781535 66.2315696 300.037138 75.1006057 301.685878 102.511652 304.130035 93.7390878 305.690396 95.4948869 307.23247 81.7346962 307.525038 77.2230002 308.305218 87.1886068 311.023658 71.2449225 312.206118 58.9093087 312.702873 62.2794139 314.345518 79.4611616 317.353478 72.9749955 317.377859 72.290041 317.941661 92.9190718 319.438022 88.0086228 320.297439 100.186665 321.601802 103.547123 323.948438 117.275156 326.224979 102.498789 327.008206 84.4262783 327.895052 95.9097185 330.019214 95.9386603 330.778061 88.6967932 331.704525 112.859932 334.852673 119.658026 335.328095 111.026955 336.083895 123.796695 338.838906 105.991092 340.100603 104.045564 340.55774 118.082309 341.825532 150.04364 344.943205 160.729574 346.38471 127.436923 346.424328 127.472296 348.329065 126.88703 349.435335 161.337351 350.724461 162.929147 352.717577 183.802574 355.347638 168.424862 356.365529 157.443079 357.380372 176.18768 358.916352 170.508667 359.550248 176.155523 360.818041 207.335427 362.942203 207.431899 364.216091 196.81028 364.246566 195.974185 364.618371 209.692571 365.883116 233.077499 368.010326 233.138598 368.376035 229.662373 369.683446 249.072635 371.813703 249.050125 373.081496 222.131089 374.139006 182.641689 374.760712 184.16917 376.016314 205.036166 377.281059 222.935026 378.548852 250.217442 380.673014 250.256031 381.937759 234.302699 383.022697 223.623196 384.677532 232.794513 386.509126 222.626314 388.12739 225.112088 389.206233 200.469802 389.233661 200.900713 390.751355 200.936086 391.766199 250.612979 393.893409 250.683725 395.155106 234.984438 395.886525 231.550018 396.831274 247.69951 398.961532 247.686647 400.229324 220.539293 401.366071 170.470078 401.905492 171.93646 403.164142 197.405193 404.428887 219.564921 405.69668 259.0093 407.820842 259.063968 409.091682 242.750472 410.356427 212.699296 410.987276 202.881614 412.151451 210.580118 413.489338 193.890379 414.559038 228.437173 416.689295 228.440388 417.957087 191.472136 418.213084 185.513353 418.365463 188.600472 419.624113 199.363585 420.891905 229.456565 422.159698 251.680608 423.427491 265.977828 425.551653 265.955318 426.822493 247.175343 428.081143 206.836986 429.351983 195.424292 430.619776 168.778594 430.772154 164.102895 431.025104 172.791849 432.289849 187.08907 434.417058 187.056913 434.526771 185.259309 434.819339 190.960832 436.090179 236.113166 437.357971 252.876866 440.033745 264.41819 442.014671 247.451897 442.593711 239.795199 443.684744 275.502877 445.815001 275.49323 447.082794 216.831534 448.344491 176.924087 449.603141 154.391333 450.82522 150.593533 451.029408 149.207545 451.282357 151.259193 452.925002 199.228523 455.945152 180.377802 456.307814 174.457607 456.35048 174.981774 459.605293 188.973499 460.815182 114.65432 461.412507 128.363059 463.542765 128.366275 464.286374 112.493337 465.22198 114.316667 466.477583 145.123544 468.60784 145.104249 469.875633 95.8035988 470.817334 65.7331285 471.64018 89.7065384 474.181861 86.7287547 477.262962 99.6914395 478.731895 41.8915642 479.981402 39.9428202 480.484253 33.2701407 481.681951 49.5579102 482.946696 60.4046321 485.070858 60.3178069 485.680374 46.0559594 486.737884 93.7808926 488.871188 93.7937556 489.706225 67.7204614 491.400679 67.6754409 492.119907 51.4648495 493.936264 51.4037502 494.475685 38.778719 495.243675 48.0754498 497.733546 25.7742295 497.754879 25.3819081 498.135827 35.6176376 499.635235 35.6755211 500.793315 94.2729022 504.011558 84.2558436 505.328112 57.3335917 506.598952 34.6304026 507.083517 21.4040264 508.28731 36.3958489 511.176415 42.0234099 511.86212 37.2126492 512.550872 42.0234099 513.775999 39.6341083 518.365652 75.5186531 521.120663 81.750775 521.644846 77.5542223 522.16903 81.7475592 524.914898 75.6633618 525.789553 63.2409229 526.133929 73.9461518 527.243248 96.6171833 528.352566 123.243586 529.477123 127.314725 530.586441 134.710948 532.707556 134.556592 533.816874 74.9140923 534.078966 66.8522092 535.023715 76.4705149 536.705979 76.4447889 537.236257 90.6744789 538.348623 149.844263 540.481928 149.850695 541.283441 118.876599 541.685722 133.144878 543.419794 155.47504 544.260925 150.992286 545.016725 171.064992 547.137839 171.14217 548.253253 160.250428 549.167526 146.023953 549.478379 150.657848 550.57246 152.603376 551.889014 211.583431 554.735452 197.675316 557.048564 200.752788 557.978076 169.85587 559.200154 175.837164 559.654244 148.673731 561.580313 148.689809 562.686584 117.857206 563.265624 116.567691 563.896473 131.932541 566.02673 131.929325 566.480819 120.037484 567.47433 157.478452 570.314673 143.602494 570.570669 148.316782 571.679988 156.208231 573.801102 156.076385 574.907373 119.188527 575.010991 118.220586 576.117262 122.211331 577.223533 144.734438 578.335899 184.670827 579.582359 184.715847 580.62463 279.93418 583.742303 270.261206 584.556006 232.649804 584.60172 233.096793 585.19295 230.212266 586.107224 275.348521 588.234434 275.464288 589.349847 266.009986 589.529654 262.077125 591.568484 262.102851 592.686946 247.741315 592.778373 243.98532 593.884644 270.441288 596.014901 270.415562 596.313564 254.28858 597.215647 269.518368 599.342857 269.537663 599.86704 262.813531 600.54665 310.081828 602.670812 310.184732 603.770988 299.431267 603.877653 302.222537 606.010958 302.21289 606.120671 298.804196 606.239527 302.081044 607.467701 299.907198 609.061584 322.616818 611.563646 303.679271 611.938498 286.224185 612.764392 298.347559 614.763603 298.305754 614.986076 308.120221 617.119381 308.145947 618.222605 282.661135 620.121246 276.760235 620.541812 286.97667 622.669021 286.992749 623.443106 271.90767 623.872815 274.194067 624.991276 290.028416 626.097547 299.363736 627.209913 311.689702 629.111602 311.651113 630.056351 336.261242 631.513094 333.711153 633.198405 344.361714 634.615529 335.425147 635.468851 345.017727 636.578169 361 638.708426 360.967843 639.817745 333.707937 640.930111 315.770488 642.030287 294.893845 642.32895 294.060966 643.240175 332.904 644.352542 359.794094 646.479751 359.816604 647.515928 341.994923 647.68964 343.87292 649.81685 343.821468 650.926168 320.407598 651.191307 309.248949 652.133009 318.169437 654.260219 318.085828 655.363442 286.97667 655.851055 282.024417 657.231608 287.841707 658.066644 270.232264 658.804158 279.242794 661.266601 295.672056 662.461252 281.442366 663.23229 303.791823 664.530558 308.914511 666.807099 309.715232 668.687455 307.737547 669.37316 281.628879 669.897343 300.273793 672.030648 300.277009 672.417691 286.655095 673.271013 288.15685 674.349855 296.115829 676.47097 296.016141 676.477065 295.845706 676.797061 302.40905 679.798926 295.038553 680.53644 272.984946 681.008814 278.136576 683.136024 278.107634 683.74554 269.048869 684.34896 284.809255 686.460932 300.38956 688.658236 285.719312 689.730983 282.709371 690.910396 264.427837 692.022762 232.842749 692.330568 219.944379 694.978913 226.446624 696.453941 208.798593 696.737366 206.608667 697.679068 217.789827 698.779244 225.086362 699.888562 244.573802 702.012724 244.586665 702.189484 242.014066 703.219565 273.77602 705.349823 273.779236 706.459141 242.621842 707.562364 221.655158 708.680826 212.589961 709.787097 180.67365 709.963856 178.377606 710.993938 194.671807 712.112399 218.545528 713.215622 227.03189 714.327988 247.689863 716.455198 247.683431 717.558422 224.870907 717.671182 228.138108 720.639523 232.308935 721.270372 225.227855 722.480261 232.469722 724.232618 207.923909 725.024988 190.9544 725.436412 202.489293 726.542683 220.015126 727.655049 240.287208 731.878992 250.825218 733.119357 201.695003 733.280878 198.530706 733.472876 201.534215 736.334552 195.511117 737.529203 190.603884 738.656807 178.03352 739.534509 172.177641 739.87279 177.158837 742 176.994833 740.890681 160.62667 738.766519 160.575218 737.660248 170.277133 736.544835 177.750534 735.441611 190.140816 734.993617 192.012382 734.225628 180.120542 732.098418 180.13662 730.983004 201.601746 730.004732 240.525174 729.770068 239.955986 728.67294 219.876848 727.563621 202.37031 726.451255 171.190406 724.324045 171.129307 723.211679 184.037324 722.102361 207.785632 721.626939 214.448664 720.621238 208.441644 719.542395 220.542508 718.676883 195.356761 716.546625 195.35033 715.434259 224.571842 715.330642 226.761767 714.233514 218.33972 713.124195 194.539961 712.008781 176.962676 710.899463 165.659318 708.775301 165.685044 707.662935 180.54502 706.559711 212.400232 705.44125 221.44935 704.334979 242.422466 704.234409 239.325699 703.12509 228.019125 701.080165 228.054498 700.891215 224.841965 699.79104 217.513273 698.681721 204.26117 696.158326 194.462783 694.335874 208.547764 694.015879 212.390584 693.129033 186.394468 690.998776 186.404115 689.892505 232.772002 688.783187 264.31207 687.679963 282.072653 686.628549 285.034358 686.56455 285.301265 684.979809 245.461349 682.118133 261.575468 681.871279 265.196401 679.030936 254.233912 678.037425 283.873472 677.583336 274.460975 675.453079 274.457759 674.828325 286.516818 674.237095 285.484563 673.139967 261.215304 671.00971 261.231383 670.970091 262.569134 670.707999 253.182362 667.71223 264.739765 666.578531 306.779254 666.273773 307.097613 665.362547 303.579583 664.143515 268.447524 661.041081 272.801648 660.72718 276.586585 659.800716 265.270363 658.691398 256.700392 656.570283 256.793649 655.820579 272.631213 654.9764 269.093889 653.23928 286.822314 652.837 298.022769 652.038534 273.573428 649.905229 273.583075 648.795911 320.323989 648.411916 328.41803 647.796305 321.738919 645.635572 339.184358 645.376528 332.826822 644.026451 275.612213 641.058109 291.227891 639.976219 294.260342 638.799854 315.632211 637.690535 333.585738 637.343111 342.030296 636.462361 332.103278 633.737826 327.321459 633.198405 330.704427 632.665079 327.321459 631.903184 328.665642 630.446441 290.829138 628.313137 290.813059 627.977903 297.109496 627.112391 289.806529 625.981739 273.891787 624.872421 267.974808 621.913222 260.051203 621.724272 263.749314 621.562751 259.761785 619.429446 259.729628 618.32927 275.322795 616.506818 280.988945 616.007015 258.800276 613.876758 258.790629 613.465335 273.306521 612.676012 251.879984 610.542707 251.896063 609.540054 298.981062 609.089012 292.610663 608.095502 294.379325 607.120277 267.656449 604.990019 267.662881 604.816307 273.039613 602.771382 273.033182 602.305103 284.008534 601.570636 232.942437 599.437332 232.900632 598.40725 253.532879 598.236586 250.68051 597.127267 210.24568 594.993962 210.255327 594.585587 232.398976 593.793216 204.290112 591.662959 204.293328 590.635925 244.490192 590.462213 241.23907 588.328908 241.248717 587.792535 253.217736 586.936165 211.056048 585.305711 219.015028 584.900383 215.088598 582.776221 215.18507 582.303846 238.412427 581.575475 171.846419 580.10959 171.78532 579.35379 144.641181 578.244472 121.963718 577.11382 117.844343 574.904326 99.1929984 572.780164 119.024523 572.188933 138.740281 571.579418 127.382255 569.452208 127.359745 568.982881 133.83948 568.248415 106.209763 565.237407 96.6975771 564.923507 104.917032 564.914364 104.71444 562.790202 104.637262 561.699169 114.802245 560.864132 116.660948 560.474042 99.3119811 558.340737 99.3184126 557.389893 156.343292 556.396382 151.474648 555.092019 194.890477 553.662705 195.52398 552.693575 151.963442 551.569018 149.966462 550.474938 133.469669 548.353823 133.408569 547.235362 142.843577 546.513086 154.111562 545.678049 131.881089 544.297496 139.232291 543.809884 133.022679 542.703613 93.5783004 540.573355 93.5139854 539.637749 104.785186 539.369562 90.6069482 538.260243 61.0252717 536.129986 60.9802512 535.962369 63.3084536 534.926193 40.7949938 532.795935 40.8142883 531.683569 74.8497773 530.769296 124.041092 530.479776 123.008837 529.373505 96.5078479 528.264186 73.8464636 527.15182 39.3350436 525.021563 39.3093177 523.912245 59.5042223 523.058923 71.6597541 521.644846 60.3596116 520.1302 72.4701229 515.016363 32.4983609 513.712 35.0388028 511.86212 22.0986282 510.210332 33.6881881 509.128442 20.2141992"></polygon>
            </g>
            <polygon id="Fill-1" fill-opacity="0.83" fill="#333333" points="0.453125 995 139.212275 995 139.212275 634 0.453125 634"></polygon>
            <polygon id="Fill-3" fill="#333333" opacity="0.65" points="203.25496 994 342.01411 994 342.01411 518 203.25496 518"></polygon>
            <polygon id="Fill-4" fill="#333333" opacity="0.5" points="397.630125 995 536.389276 995 536.389276 814 397.630125 814"></polygon>
            <polygon id="Fill-5" fill="#333333" opacity="0.3" points="603.24085 994 742 994 742 434 603.24085 434"></polygon>
            <g id="Group-4" transform="translate(942.000000, 0.000000)">
                <g id="Group-3">
                    <path d="M225.403425,219.405121 L96.272401,41.9026034 C135.536427,13.4121736 176.870062,0 225.403425,0 L225.403425,219.405121 Z" id="Fill-15" fill="#333333" opacity="0.3"></path>
                    <path d="M221.512089,223.512795 L13.5347024,156.023357 C28.4633601,110.13536 53.892437,75.1831712 92.9724749,46.8232255 L221.512089,223.512795 Z" id="Fill-17" fill="#333333" opacity="0.5"></path>
                    <path d="M223.950034,230.868298 L223.950034,454.530076 C100.266911,454.530076 0,354.392224 0,230.868298 C0,206.162662 3.31594714,185.249707 10.9622314,161.752961 L223.950034,230.868298 Z" id="Fill-19" fill="#333333" opacity="0.65"></path>
                    <path d="M230.155714,227.731142 L230.155714,0 C356.089163,0 458.180357,101.959788 458.180357,227.731142 C458.180357,353.502496 356.089163,455.462284 230.155714,455.462284 L230.155714,227.731142 Z" id="Fill-21" fill-opacity="0.83" fill="#333333"></path>
                    <ellipse id="Oval-1" fill="#FFCE00" cx="225.893571" cy="229.859471" rx="144.912857" ry="144.726333"></ellipse>
                </g>
                <g id="Group-3-Copy" transform="translate(0.000000, 539.225463)" fill="#333333">
                    <path d="M225.403425,219.405121 L96.272401,41.9026034 C135.536427,13.4121736 176.870062,0 225.403425,0 L225.403425,219.405121 Z" id="Fill-15" opacity="0.3"></path>
                    <path d="M221.512089,223.512795 L13.5347024,156.023357 C28.4633601,110.13536 53.892437,75.1831712 92.9724749,46.8232255 L221.512089,223.512795 Z" id="Fill-17" opacity="0.5"></path>
                    <path d="M223.950034,230.868298 L223.950034,454.530076 C100.266911,454.530076 0,354.392224 0,230.868298 C0,206.162662 3.31594714,185.249707 10.9622314,161.752961 L223.950034,230.868298 Z" id="Fill-19" opacity="0.65"></path>
                    <path d="M230.155714,227.731142 L230.155714,0 C356.089163,0 458.180357,101.959788 458.180357,227.731142 C458.180357,353.502496 356.089163,455.462284 230.155714,455.462284 L230.155714,227.731142 Z" id="Fill-21" fill-opacity="0.83"></path>
                </g>
            </g>
        </g>
    </g>
</svg>