<?xml version="1.0" encoding="utf-8"?>
<!-- Generator: Adobe Illustrator 19.2.1, SVG Export Plug-In . SVG Version: 6.00 Build 0)  -->
<svg version="1.1" id="Layer_1" xmlns="http://www.w3.org/2000/svg" xmlns:xlink="http://www.w3.org/1999/xlink" x="0px" y="0px"
	 viewBox="0 0 650.4 550" style="enable-background:new 0 0 650.4 550;" xml:space="preserve">
<style type="text/css">
	.st0{fill:#FFCE00;}
	.st1{fill:#F1F1F1;}
	.st2{opacity:0.83;fill:#90FF00;}
	.st3{fill:none;stroke:#000000;stroke-width:6;stroke-miterlimit:10;}
	.st4{opacity:0.8;}
	.st5{opacity:0.75;}
	.st6{fill:#D9D9D9;}
	.st7{fill:none;stroke:#D9D9D9;stroke-miterlimit:10;}
	.st8{opacity:0.83;fill:none;stroke:#90FF00;stroke-width:10;stroke-miterlimit:10;}
	.st9{fill:#5D5D5D;}
	.st10{opacity:0.83;fill:#FFCE00;}
	.st11{opacity:0.5;fill:#F1F1F1;}
	.st12{opacity:0.65;fill:#F1F1F1;}
	.st13{fill:#EF9360;}
	.st14{fill:#5BD5B9;}
	.st15{fill:#333333;}
	.st16{fill:#FFFFFF;}
	.st17{opacity:0.2;fill:#848484;}
	.st18{fill:#999999;}
	.st19{clip-path:url(#SVGID_2_);}
	.st20{fill:none;stroke:#999999;stroke-miterlimit:10;}
	.st21{opacity:0.5;}
	.st22{fill:none;stroke:#FFFFFF;stroke-width:0.5;stroke-miterlimit:10;}
	.st23{opacity:0.5;fill:#FFFFFF;stroke:#FFFFFF;stroke-miterlimit:10;}
	.st24{opacity:0.5;fill:#333333;}
	.st25{fill:none;stroke:#333333;stroke-miterlimit:10;}
	.st26{opacity:0.65;fill:#FFFFFF;stroke:#FFFFFF;stroke-miterlimit:10;}
	.st27{fill:#FFFFFF;stroke:#FFFFFF;stroke-miterlimit:10;}
	.st28{opacity:0.5;fill:#FFCE00;}
	.st29{fill:none;stroke:#FFCE00;stroke-width:2.9602;stroke-miterlimit:10;}
	.st30{opacity:0.5;fill:#EF9360;}
	.st31{fill:none;stroke:#EF9360;stroke-width:1.4801;stroke-miterlimit:10;}
	.st32{opacity:0.5;fill:#5BD5B9;}
	.st33{fill:none;stroke:#5BD5B9;stroke-width:1.4801;stroke-miterlimit:10;}
	.st34{fill:none;stroke:#333333;stroke-width:1.4801;stroke-miterlimit:10;}
	.st35{clip-path:url(#SVGID_4_);}
	.st36{fill:none;stroke:#999999;stroke-width:0.3404;stroke-miterlimit:10;}
	.st37{fill:none;stroke:#FFFFFF;stroke-width:0.1702;stroke-miterlimit:10;}
	.st38{fill:none;stroke:#333333;stroke-width:0.3404;stroke-miterlimit:10;}
	.st39{fill:#666666;}
	.st40{opacity:0.65;fill:#FFCE00;}
	.st41{opacity:0.3;fill:#FFCE00;}
	.st42{opacity:0.83;}
	.st43{opacity:0.65;fill:#EF9360;}
	.st44{opacity:0.3;fill:#EF9360;}
	.st45{opacity:0.65;fill:#5BD5B9;}
	.st46{opacity:0.3;fill:#5BD5B9;}
	.st47{opacity:0.65;fill:#333333;}
	.st48{opacity:0.3;fill:#333333;}
	.st49{opacity:0.83;fill:#EF9360;}
	.st50{opacity:0.83;fill:#5BD5B9;}
	.st51{opacity:0.83;fill:#333333;}
	.st52{opacity:0.65;}
	.st53{opacity:0.3;}
	.st54{opacity:0.3;fill:#FFFFFF;}
	.st55{opacity:0.5;fill:#FFFFFF;}
	.st56{opacity:0.65;fill:#FFFFFF;}
	.st57{opacity:0.83;fill:#FFFFFF;}
	.st58{opacity:0.65;fill:#5D5D5D;}
</style>
<g>
	<rect y="126.5" class="st58" width="2.3" height="124.8"/>
	<rect x="100.1" y="126.5" class="st58" width="2.3" height="124.8"/>
	<rect x="10" y="107.8" class="st58" width="2.3" height="143.5"/>
	<rect x="90.1" y="107.8" class="st58" width="2.3" height="143.5"/>
	<rect x="20" y="78.4" class="st58" width="2.3" height="172.9"/>
	<rect x="80.1" y="78.4" class="st58" width="2.3" height="172.9"/>
	<rect x="30" y="42" class="st58" width="2.3" height="209.3"/>
	<rect x="70.1" y="42" class="st58" width="2.3" height="209.3"/>
	<rect x="40" y="21" class="st58" width="2.3" height="230.2"/>
	<rect x="60.1" y="21" class="st58" width="2.3" height="230.2"/>
	<rect x="50.1" class="st58" width="2.3" height="251.2"/>
	<rect x="110.1" y="126.5" class="st58" width="2.3" height="124.8"/>
	<rect x="210.2" y="126.5" class="st58" width="2.3" height="124.8"/>
	<rect x="120.1" y="107.8" class="st58" width="2.3" height="143.5"/>
	<rect x="200.2" y="107.8" class="st58" width="2.3" height="143.5"/>
	<rect x="130.1" y="78.4" class="st58" width="2.3" height="172.9"/>
	<rect x="190.2" y="78.4" class="st58" width="2.3" height="172.9"/>
	<rect x="140.1" y="42" class="st58" width="2.3" height="209.3"/>
	<rect x="180.2" y="42" class="st58" width="2.3" height="209.3"/>
	<rect x="150.2" y="21" class="st58" width="2.3" height="230.2"/>
	<rect x="170.2" y="21" class="st58" width="2.3" height="230.2"/>
	<rect x="160.2" class="st58" width="2.3" height="251.2"/>
	<rect x="219" y="126.5" class="st58" width="2.3" height="124.8"/>
	<rect x="319.1" y="126.5" class="st58" width="2.3" height="124.8"/>
	<rect x="229" y="107.8" class="st58" width="2.3" height="143.5"/>
	<rect x="309.1" y="107.8" class="st58" width="2.3" height="143.5"/>
	<rect x="239" y="78.4" class="st58" width="2.3" height="172.9"/>
	<rect x="299.1" y="78.4" class="st58" width="2.3" height="172.9"/>
	<rect x="249" y="42" class="st58" width="2.3" height="209.3"/>
	<rect x="289" y="42" class="st58" width="2.3" height="209.3"/>
	<rect x="259" y="21" class="st58" width="2.3" height="230.2"/>
	<rect x="279" y="21" class="st58" width="2.3" height="230.2"/>
	<rect x="269" class="st58" width="2.3" height="251.2"/>
	<rect x="329.1" y="126.5" class="st58" width="2.3" height="124.8"/>
	<rect x="429.2" y="126.5" class="st58" width="2.3" height="124.8"/>
	<rect x="339.1" y="107.8" class="st58" width="2.3" height="143.5"/>
	<rect x="419.2" y="107.8" class="st58" width="2.3" height="143.5"/>
	<rect x="349.1" y="78.4" class="st58" width="2.3" height="172.9"/>
	<rect x="409.2" y="78.4" class="st58" width="2.3" height="172.9"/>
	<rect x="359.1" y="42" class="st58" width="2.3" height="209.3"/>
	<rect x="399.2" y="42" class="st58" width="2.3" height="209.3"/>
	<rect x="369.1" y="21" class="st58" width="2.3" height="230.2"/>
	<rect x="389.2" y="21" class="st58" width="2.3" height="230.2"/>
	<rect x="379.1" class="st58" width="2.3" height="251.2"/>
	<rect x="438" y="126.5" class="st58" width="2.3" height="124.8"/>
	<rect x="538.1" y="126.5" class="st58" width="2.3" height="124.8"/>
	<rect x="448" y="107.8" class="st58" width="2.3" height="143.5"/>
	<rect x="528" y="107.8" class="st58" width="2.3" height="143.5"/>
	<rect x="458" y="78.4" class="st58" width="2.3" height="172.9"/>
	<rect x="518" y="78.4" class="st58" width="2.3" height="172.9"/>
	<rect x="468" y="42" class="st58" width="2.3" height="209.3"/>
	<rect x="508" y="42" class="st58" width="2.3" height="209.3"/>
	<rect x="478" y="21" class="st58" width="2.3" height="230.2"/>
	<rect x="498" y="21" class="st58" width="2.3" height="230.2"/>
	<rect x="488" class="st58" width="2.3" height="251.2"/>
	<rect x="548.1" y="126.5" class="st58" width="2.3" height="124.8"/>
	<rect x="648.2" y="126.5" class="st58" width="2.3" height="124.8"/>
	<rect x="558.1" y="107.8" class="st58" width="2.3" height="143.5"/>
	<rect x="638.2" y="107.8" class="st58" width="2.3" height="143.5"/>
	<rect x="568.1" y="78.4" class="st58" width="2.3" height="172.9"/>
	<rect x="628.2" y="78.4" class="st58" width="2.3" height="172.9"/>
	<rect x="578.1" y="42" class="st58" width="2.3" height="209.3"/>
	<rect x="618.1" y="42" class="st58" width="2.3" height="209.3"/>
	<rect x="588.1" y="21" class="st58" width="2.3" height="230.2"/>
	<rect x="608.1" y="21" class="st58" width="2.3" height="230.2"/>
	<rect x="598.1" class="st58" width="2.3" height="251.2"/>
</g>
<g>
	<rect y="425.2" class="st58" width="2.3" height="124.8"/>
	<rect x="100.1" y="425.2" class="st58" width="2.3" height="124.8"/>
	<rect x="10" y="406.5" class="st58" width="2.3" height="143.5"/>
	<rect x="90.1" y="478.7" class="st58" width="2.3" height="71.2"/>
	<rect x="20" y="377.1" class="st58" width="2.3" height="172.9"/>
	<rect x="80.1" y="464.1" class="st58" width="2.3" height="85.8"/>
	<rect x="30" y="340.7" class="st58" width="2.3" height="209.3"/>
	<rect x="70.1" y="473.6" class="st58" width="2.3" height="76.3"/>
	<rect x="40" y="465.3" class="st58" width="2.3" height="84.7"/>
	<rect x="60.1" y="465.3" class="st58" width="2.3" height="84.7"/>
	<rect x="50.1" y="456.9" class="st58" width="2.3" height="93.1"/>
	<rect x="110.1" y="425.2" class="st58" width="2.3" height="124.8"/>
	<rect x="210.2" y="425.2" class="st58" width="2.3" height="124.8"/>
	<rect x="120.1" y="478.7" class="st58" width="2.3" height="71.2"/>
	<rect x="200.2" y="478.7" class="st58" width="2.3" height="71.2"/>
	<rect x="130.1" y="464.1" class="st58" width="2.3" height="85.8"/>
	<rect x="190.2" y="464.1" class="st58" width="2.3" height="85.8"/>
	<rect x="140.1" y="500.7" class="st58" width="2.3" height="49.2"/>
	<rect x="180.2" y="500.7" class="st58" width="2.3" height="49.2"/>
	<rect x="150.2" y="495.8" class="st58" width="2.3" height="54.2"/>
	<rect x="170.2" y="495.8" class="st58" width="2.3" height="54.2"/>
	<rect x="160.2" y="490.9" class="st58" width="2.3" height="59.1"/>
	<rect x="219" y="425.2" class="st58" width="2.3" height="124.8"/>
	<rect x="319.1" y="425.2" class="st58" width="2.3" height="124.8"/>
	<rect x="229" y="406.5" class="st58" width="2.3" height="143.5"/>
	<rect x="309.1" y="406.5" class="st58" width="2.3" height="143.5"/>
	<rect x="239" y="377.1" class="st58" width="2.3" height="172.9"/>
	<rect x="299.1" y="377.1" class="st58" width="2.3" height="172.9"/>
	<rect x="249" y="425.6" class="st58" width="2.3" height="124.4"/>
	<rect x="289" y="425.6" class="st58" width="2.3" height="124.4"/>
	<rect x="259" y="413.1" class="st58" width="2.3" height="136.8"/>
	<rect x="279" y="413.1" class="st58" width="2.3" height="136.8"/>
	<rect x="269" y="400.7" class="st58" width="2.3" height="149.3"/>
	<rect x="329.1" y="425.2" class="st58" width="2.3" height="124.8"/>
	<rect x="429.2" y="493.7" class="st58" width="2.3" height="56.3"/>
	<rect x="339.1" y="485.3" class="st58" width="2.3" height="64.7"/>
	<rect x="419.2" y="485.3" class="st58" width="2.3" height="64.7"/>
	<rect x="349.1" y="472" class="st58" width="2.3" height="78"/>
	<rect x="409.2" y="472" class="st58" width="2.3" height="78"/>
	<rect x="359.1" y="488.8" class="st58" width="2.3" height="61.2"/>
	<rect x="399.2" y="488.8" class="st58" width="2.3" height="61.2"/>
	<rect x="369.1" y="482.7" class="st58" width="2.3" height="67.3"/>
	<rect x="389.2" y="482.7" class="st58" width="2.3" height="67.3"/>
	<rect x="379.1" y="476.5" class="st58" width="2.3" height="73.5"/>
	<rect x="438" y="493.7" class="st58" width="2.3" height="56.3"/>
	<rect x="538.1" y="425.2" class="st58" width="2.3" height="124.8"/>
	<rect x="448" y="485.3" class="st58" width="2.3" height="64.7"/>
	<rect x="528" y="452.7" class="st58" width="2.3" height="97.3"/>
	<rect x="458" y="472" class="st58" width="2.3" height="78"/>
	<rect x="518" y="432.7" class="st58" width="2.3" height="117.2"/>
	<rect x="468" y="488.8" class="st58" width="2.3" height="61.2"/>
	<rect x="508" y="458" class="st58" width="2.3" height="92"/>
	<rect x="478" y="448.8" class="st58" width="2.3" height="101.2"/>
	<rect x="498" y="448.8" class="st58" width="2.3" height="101.2"/>
	<rect x="488" y="439.5" class="st58" width="2.3" height="110.4"/>
	<rect x="548.1" y="425.2" class="st58" width="2.3" height="124.8"/>
	<rect x="648.2" y="425.2" class="st58" width="2.3" height="124.8"/>
	<rect x="558.1" y="455.3" class="st58" width="2.3" height="94.7"/>
	<rect x="638.2" y="455.3" class="st58" width="2.3" height="94.7"/>
	<rect x="568.1" y="435.9" class="st58" width="2.3" height="114.1"/>
	<rect x="628.2" y="435.9" class="st58" width="2.3" height="114.1"/>
	<rect x="578.1" y="414.4" class="st58" width="2.3" height="135.6"/>
	<rect x="618.1" y="414.4" class="st58" width="2.3" height="135.6"/>
	<rect x="588.1" y="451.5" class="st58" width="2.3" height="98.5"/>
	<rect x="608.1" y="451.5" class="st58" width="2.3" height="98.5"/>
	<rect x="598.1" y="442.5" class="st58" width="2.3" height="107.5"/>
</g>
</svg>
