<?xml version="1.0" encoding="utf-8"?>
<!-- Generator: Adobe Illustrator 19.2.1, SVG Export Plug-In . SVG Version: 6.00 Build 0)  -->
<svg version="1.1" id="Layer_1" xmlns="http://www.w3.org/2000/svg" xmlns:xlink="http://www.w3.org/1999/xlink" x="0px" y="0px"
	 viewBox="0 0 1671.2 1717.1" style="enable-background:new 0 0 1671.2 1717.1;" xml:space="preserve">
<style type="text/css">
	.st0{fill:#FFCE00;}
	.st1{fill:#F1F1F1;}
	.st2{opacity:0.83;fill:#90FF00;}
	.st3{fill:none;stroke:#000000;stroke-width:6;stroke-miterlimit:10;}
	.st4{opacity:0.8;}
	.st5{opacity:0.75;}
	.st6{fill:#D9D9D9;}
	.st7{fill:none;stroke:#D9D9D9;stroke-miterlimit:10;}
	.st8{opacity:0.83;fill:none;stroke:#90FF00;stroke-width:10;stroke-miterlimit:10;}
	.st9{fill:#5D5D5D;}
	.st10{opacity:0.83;fill:#FFCE00;}
	.st11{opacity:0.5;fill:#F1F1F1;}
	.st12{opacity:0.65;fill:#F1F1F1;}
	.st13{fill:#EF9360;}
	.st14{fill:#5BD5B9;}
	.st15{fill:#333333;}
	.st16{fill:#FFFFFF;}
	.st17{opacity:0.2;fill:#848484;}
	.st18{fill:#999999;}
	.st19{clip-path:url(#SVGID_2_);}
	.st20{fill:none;stroke:#999999;stroke-miterlimit:10;}
	.st21{opacity:0.5;}
	.st22{fill:none;stroke:#FFFFFF;stroke-width:0.5;stroke-miterlimit:10;}
	.st23{opacity:0.5;fill:#FFFFFF;stroke:#FFFFFF;stroke-miterlimit:10;}
	.st24{opacity:0.5;fill:#333333;}
	.st25{fill:none;stroke:#333333;stroke-miterlimit:10;}
	.st26{opacity:0.65;fill:#FFFFFF;stroke:#FFFFFF;stroke-miterlimit:10;}
	.st27{fill:#FFFFFF;stroke:#FFFFFF;stroke-miterlimit:10;}
	.st28{opacity:0.5;fill:#FFCE00;}
	.st29{fill:none;stroke:#FFCE00;stroke-width:2.9602;stroke-miterlimit:10;}
	.st30{opacity:0.5;fill:#EF9360;}
	.st31{fill:none;stroke:#EF9360;stroke-width:1.4801;stroke-miterlimit:10;}
	.st32{opacity:0.5;fill:#5BD5B9;}
	.st33{fill:none;stroke:#5BD5B9;stroke-width:1.4801;stroke-miterlimit:10;}
	.st34{fill:none;stroke:#333333;stroke-width:1.4801;stroke-miterlimit:10;}
	.st35{clip-path:url(#SVGID_4_);}
	.st36{fill:none;stroke:#999999;stroke-width:0.3404;stroke-miterlimit:10;}
	.st37{fill:none;stroke:#FFFFFF;stroke-width:0.1702;stroke-miterlimit:10;}
	.st38{fill:none;stroke:#333333;stroke-width:0.3404;stroke-miterlimit:10;}
	.st39{fill:#666666;}
	.st40{opacity:0.65;fill:#FFCE00;}
	.st41{opacity:0.3;fill:#FFCE00;}
	.st42{opacity:0.83;}
	.st43{opacity:0.65;fill:#EF9360;}
	.st44{opacity:0.3;fill:#EF9360;}
	.st45{opacity:0.65;fill:#5BD5B9;}
	.st46{opacity:0.3;fill:#5BD5B9;}
	.st47{opacity:0.65;fill:#333333;}
	.st48{opacity:0.3;fill:#333333;}
	.st49{opacity:0.83;fill:#EF9360;}
	.st50{opacity:0.83;fill:#5BD5B9;}
	.st51{opacity:0.83;fill:#333333;}
	.st52{opacity:0.65;}
	.st53{opacity:0.3;}
	.st54{opacity:0.3;fill:#FFFFFF;}
	.st55{opacity:0.5;fill:#FFFFFF;}
	.st56{opacity:0.65;fill:#FFFFFF;}
	.st57{opacity:0.83;fill:#FFFFFF;}
</style>
<g class="st42">
	<path class="st15" d="M1242.1,336.4c0,36.7-7.2,70-21.4,99.8c-14.3,29.8-34.5,57.7-60.6,83.8c-26.1,26.1-57.8,51.8-94.9,77.1
		c-37.2,25.3-79,52.2-125.5,80.8l-89.4-139.5c27.7-18.8,53.4-36.1,77.1-52c23.7-15.9,44.3-31.2,61.8-45.9
		c17.5-14.7,31.4-29.6,41.6-44.7s15.3-31.2,15.3-48.3c0-24.5-8-42.4-23.9-53.9c-15.9-11.4-36.5-17.1-61.8-17.1
		c-29.4,0-56.7,4.7-82,14.1c-25.3,9.4-50.6,21-75.9,34.9L746.2,186c36.7-23.6,73.9-41.1,111.4-52.5s81.2-17.1,131-17.1
		c35.1,0,68.1,4.7,99.2,14c31,9.4,58,23.2,80.9,41.5c22.9,18.3,40.8,41.1,53.9,68.4S1242.1,299.6,1242.1,336.4z M839.1,846.4
		c0-29.3,9.4-55,28.1-77c18.7-22,46-33,81.9-33c35.8,0,63.1,11,81.9,33c18.7,22,28.1,47.7,28.1,77c0,29.3-9.4,55-28.1,77
		c-18.8,22-46,33-81.9,33c-35.9,0-63.2-11-81.9-33C848.5,901.4,839.1,875.7,839.1,846.4z"/>
</g>
<g class="st21">
	<path class="st15" d="M383.5,1342.2c0,9.9-1.9,18.9-5.8,27c-3.9,8.1-9.3,15.6-16.4,22.7c-7.1,7.1-15.6,14-25.7,20.9
		c-10.1,6.8-21.4,14.1-34,21.9l-24.2-37.8c7.5-5.1,14.5-9.8,20.9-14.1c6.4-4.3,12-8.5,16.7-12.4c4.7-4,8.5-8,11.3-12.1
		c2.8-4.1,4.1-8.4,4.1-13.1c0-6.6-2.2-11.5-6.5-14.6c-4.3-3.1-9.9-4.6-16.7-4.6c-8,0-15.4,1.3-22.2,3.8c-6.8,2.5-13.7,5.7-20.5,9.4
		l-15.2-37.6c9.9-6.4,20-11.1,30.2-14.1c10.2-3.1,22-4.6,35.5-4.6c9.5,0,18.4,1.3,26.8,3.8c8.4,2.5,15.7,6.2,21.9,11.2
		c6.2,4.9,11,11.1,14.6,18.4C381.7,1323.6,383.5,1332.2,383.5,1342.2z M274.4,1480.3c0-8,2.5-14.9,7.6-20.9c5.1-6,12.5-8.9,22.2-8.9
		c9.7,0,17.1,3,22.2,8.9c5.1,6,7.6,12.9,7.6,20.9s-2.5,14.9-7.6,20.9c-5.1,6-12.5,8.9-22.2,8.9c-9.7,0-17.1-3-22.2-8.9
		C277,1495.3,274.4,1488.3,274.4,1480.3z"/>
</g>
<g class="st21">
	<path class="st15" d="M1541.6,751.9c0,9.9-1.9,18.9-5.8,27c-3.9,8.1-9.3,15.6-16.4,22.7c-7.1,7.1-15.6,14-25.7,20.9
		c-10.1,6.8-21.4,14.1-34,21.9l-24.2-37.8c7.5-5.1,14.5-9.8,20.9-14.1c6.4-4.3,12-8.4,16.7-12.4c4.7-4,8.5-8,11.3-12.1
		c2.8-4.1,4.1-8.4,4.1-13.1c0-6.6-2.2-11.5-6.5-14.6c-4.3-3.1-9.9-4.6-16.7-4.6c-8,0-15.4,1.3-22.2,3.8c-6.8,2.5-13.7,5.7-20.5,9.4
		l-15.2-37.6c9.9-6.4,20-11.1,30.2-14.1c10.2-3.1,22-4.6,35.5-4.6c9.5,0,18.4,1.3,26.8,3.8c8.4,2.5,15.7,6.2,21.9,11.2
		c6.2,4.9,11,11.1,14.6,18.4C1539.8,733.3,1541.6,742,1541.6,751.9z M1432.6,890.1c0-8,2.5-14.9,7.6-20.9c5.1-6,12.5-8.9,22.2-8.9
		c9.7,0,17.1,3,22.2,8.9c5.1,6,7.6,12.9,7.6,20.9s-2.5,14.9-7.6,20.9c-5.1,6-12.5,8.9-22.2,8.9c-9.7,0-17.1-3-22.2-8.9
		C1435.1,905,1432.6,898,1432.6,890.1z"/>
</g>
<g class="st52">
	<path class="st15" d="M330.7,155.2c0,23.3-4.5,44.5-13.6,63.4c-9.1,18.9-21.9,36.7-38.5,53.3c-16.6,16.6-36.7,32.9-60.3,49
		c-23.6,16.1-50.2,33.2-79.7,51.3l-56.8-88.7c17.6-11.9,34-22.9,49-33.1c15-10.1,28.1-19.8,39.3-29.2c11.1-9.3,20-18.8,26.4-28.4
		c6.5-9.6,9.7-19.8,9.7-30.7c0-15.6-5.1-27-15.2-34.2c-10.1-7.3-23.2-10.9-39.3-10.9c-18.7,0-36,3-52.1,8.9
		c-16.1,6-32.2,13.4-48.2,22.2L15.6,60C39,45.1,62.6,34,86.4,26.8C110.3,19.6,138,16,169.7,16c22.3,0,43.3,3,63,8.9
		c19.7,5.9,36.8,14.7,51.3,26.2c14.5,11.6,25.9,26,34.2,43.2C326.5,111.6,330.7,131.9,330.7,155.2z M74.8,479.6c0-18.7,6-35,17.9-49
		c11.9-14,29.3-21,52.1-21c22.8,0,40.2,7,52.1,21c11.9,14,17.9,30.3,17.9,49c0,18.7-6,35-17.9,49c-11.9,14-29.3,21-52.1,21
		c-22.8,0-40.2-7-52.1-21C80.7,514.6,74.8,498.3,74.8,479.6z"/>
</g>
<g class="st52">
	<path class="st15" d="M1488.2,1193.8c0,23.3-4.5,44.5-13.6,63.4c-9.1,18.9-21.9,36.7-38.5,53.3c-16.6,16.6-36.7,32.9-60.3,49
		c-23.6,16.1-50.2,33.2-79.7,51.3l-56.8-88.7c17.6-11.9,34-22.9,49-33.1c15-10.1,28.1-19.8,39.3-29.2c11.1-9.3,20-18.8,26.4-28.4
		c6.5-9.6,9.7-19.8,9.7-30.7c0-15.6-5.1-27-15.2-34.2c-10.1-7.3-23.2-10.9-39.3-10.9c-18.7,0-36,3-52.1,8.9
		c-16.1,6-32.2,13.4-48.2,22.2l-35.8-88.2c23.3-14.9,46.9-26,70.8-33.2c23.8-7.2,51.6-10.8,83.2-10.8c22.3,0,43.3,3,63,8.9
		c19.7,5.9,36.8,14.7,51.3,26.2c14.5,11.6,25.9,26,34.2,43.2C1484.1,1150.2,1488.2,1170.5,1488.2,1193.8z M1232.3,1518.2
		c0-18.7,6-35,17.9-49c11.9-14,29.3-21,52.1-21c22.8,0,40.2,7,52.1,21c11.9,14,17.9,30.3,17.9,49c0,18.7-6,35-17.9,49
		c-11.9,14-29.3,21-52.1,21c-22.8,0-40.2-7-52.1-21C1238.3,1553.2,1232.3,1536.8,1232.3,1518.2z"/>
</g>
<g class="st53">
	<path class="st15" d="M784.8,1143.1c0,9.2-1.8,17.5-5.4,25c-3.6,7.5-8.6,14.4-15.2,21c-6.5,6.5-14.4,13-23.7,19.3
		c-9.3,6.3-19.8,13.1-31.4,20.2l-22.4-34.9c6.9-4.7,13.4-9,19.3-13c5.9-4,11.1-7.8,15.5-11.5c4.4-3.7,7.9-7.4,10.4-11.2
		c2.6-3.8,3.8-7.8,3.8-12.1c0-6.1-2-10.6-6-13.5c-4-2.9-9.1-4.3-15.5-4.3c-7.3,0-14.2,1.2-20.5,3.5c-6.3,2.3-12.7,5.3-19,8.7
		l-14.1-34.7c9.2-5.9,18.5-10.2,27.9-13.1c9.4-2.8,20.3-4.3,32.8-4.3c8.8,0,17,1.2,24.8,3.5c7.8,2.3,14.5,5.8,20.2,10.3
		c5.7,4.6,10.2,10.2,13.5,17C783.2,1125.9,784.8,1133.9,784.8,1143.1z M684.1,1270.8c0-7.4,2.3-13.8,7-19.3
		c4.7-5.5,11.5-8.3,20.5-8.3c9,0,15.8,2.8,20.5,8.3c4.7,5.5,7,11.9,7,19.3c0,7.3-2.3,13.8-7,19.3c-4.7,5.5-11.5,8.3-20.5,8.3
		c-9,0-15.8-2.8-20.5-8.3C686.4,1284.5,684.1,1278.1,684.1,1270.8z"/>
</g>
<g class="st53">
	<path class="st15" d="M1664.8,73.2c0,9.2-1.8,17.5-5.4,25c-3.6,7.5-8.6,14.4-15.2,21c-6.5,6.5-14.4,13-23.7,19.3
		c-9.3,6.3-19.8,13.1-31.4,20.2l-22.4-34.9c6.9-4.7,13.4-9,19.3-13c5.9-4,11.1-7.8,15.5-11.5c4.4-3.7,7.9-7.4,10.4-11.2
		c2.6-3.8,3.8-7.8,3.8-12.1c0-6.1-2-10.6-6-13.5c-4-2.9-9.1-4.3-15.5-4.3c-7.3,0-14.2,1.2-20.5,3.5c-6.3,2.3-12.7,5.3-19,8.7
		l-14.1-34.7c9.2-5.9,18.5-10.2,27.9-13.1c9.4-2.8,20.3-4.3,32.8-4.3c8.8,0,17,1.2,24.8,3.5c7.8,2.3,14.5,5.8,20.2,10.3
		c5.7,4.6,10.2,10.2,13.5,17C1663.2,56,1664.8,64,1664.8,73.2z M1564.1,200.9c0-7.4,2.3-13.8,7-19.3c4.7-5.5,11.5-8.3,20.5-8.3
		c9,0,15.8,2.8,20.5,8.3c4.7,5.5,7,11.9,7,19.3s-2.3,13.8-7,19.3c-4.7,5.5-11.5,8.3-20.5,8.3c-9,0-15.8-2.8-20.5-8.3
		C1566.4,214.7,1564.1,208.2,1564.1,200.9z"/>
</g>
<g class="st53">
	<path class="st15" d="M454.8,705.7c0,9.2-1.8,17.5-5.4,25c-3.6,7.5-8.6,14.4-15.2,21c-6.5,6.5-14.4,13-23.7,19.3
		c-9.3,6.3-19.8,13.1-31.4,20.2l-22.4-34.9c6.9-4.7,13.4-9,19.3-13c5.9-4,11.1-7.8,15.5-11.5c4.4-3.7,7.9-7.4,10.4-11.2
		c2.6-3.8,3.8-7.8,3.8-12.1c0-6.1-2-10.6-6-13.5c-4-2.9-9.1-4.3-15.5-4.3c-7.3,0-14.2,1.2-20.5,3.5c-6.3,2.3-12.7,5.3-19,8.7
		l-14.1-34.7c9.2-5.9,18.5-10.2,27.9-13.1c9.4-2.8,20.3-4.3,32.8-4.3c8.8,0,17,1.2,24.8,3.5c7.8,2.3,14.5,5.8,20.2,10.3
		c5.7,4.6,10.2,10.2,13.5,17C453.2,688.6,454.8,696.5,454.8,705.7z M354.1,833.4c0-7.4,2.3-13.8,7-19.3c4.7-5.5,11.5-8.3,20.5-8.3
		c9,0,15.8,2.8,20.5,8.3c4.7,5.5,7,11.9,7,19.3s-2.3,13.8-7,19.3c-4.7,5.5-11.5,8.3-20.5,8.3c-9,0-15.8-2.8-20.5-8.3
		C356.4,847.2,354.1,840.8,354.1,833.4z"/>
</g>
</svg>
