<?xml version="1.0" encoding="UTF-8" standalone="no"?>
<svg width="541px" height="720px" viewBox="0 0 541 720" version="1.1" xmlns="http://www.w3.org/2000/svg" xmlns:xlink="http://www.w3.org/1999/xlink">
    <!-- Generator: Sketch 3.7.1 (28215) - http://www.bohemiancoding.com/sketch -->
    <title>yellowpie</title>
    <desc>Created with Sketch.</desc>
    <defs></defs>
    <g id="Page-1" stroke="none" stroke-width="1" fill="none" fill-rule="evenodd">
        <g id="yellowpie" transform="translate(1.000000, 1.000000)" stroke="#FFFFFF" fill="#FFCE00">
            <path d="M359,359 L148,68.5629426 C212.157981,21.9454398 279.698138,0 359,0 L359,359 Z" id="Fill-1" opacity="0.3"></path>
            <path d="M359,359 L18,248.228271 C42.4765248,172.917043 84.1698617,115.547352 148.248926,69 L359,359 Z" id="Fill-3" opacity="0.5"></path>
            <path d="M359,358.95315 L359,718 C160.728621,718 0,557.250404 0,358.95315 C0,319.292407 5.3175613,285.718901 17.5712126,248 L359,358.95315 Z" id="Fill-5" opacity="0.65"></path>
            <path d="M539,48.8491575 C485.852403,17.7958384 424.00556,0 358,0 L358,359 L358,718 C424.00556,718 485.852403,700.204162 539,669.150843 L539,48.8491575 Z" id="Combined-Shape"></path>
        </g>
    </g>
</svg>